# xmcd CD database file
#
# Track frame offsets:
#	182
#	14085
#	25505
#	39097
#	48950
#	67335
#	81752
#	96632
#	115567
#	142192
#	155725
#
# Disc length: 2365 seconds
#
# Revision: 0
# Processed by: cddbd v1.5.1PL0 Copyright (c) Steve Scherf et al.
# Submitted via: CDex 1.51
#
DISCID=93093b0b
DTITLE=Jakub Smolik - Country Vanoce
DYEAR=1997
DGENRE=Country
TTITLE0=Posvatna chvile
TTITLE1=Silent Night
TTITLE2=Blaznivej pan koleda
TTITLE3=We wish you a Merry Christmas
TTITLE4=Hvezda k zemi pada
TTITLE5=Tobe
TTITLE6=The first Noel
TTITLE7=Az me andele
TTITLE8=Ticha noc
TTITLE9=The Christmas Song
TTITLE10=Ave Maria
EXTD=YEAR: 1997
EXTT0=
EXTT1=
EXTT2=
EXTT3=
EXTT4=
EXTT5=
EXTT6=
EXTT7=
EXTT8=
EXTT9=
EXTT10=
PLAYORDER=
